<svg id="Layer_1" enable-background="new 0 0 128 128" height="512" viewBox="0 0 128 128" width="512" xmlns="http://www.w3.org/2000/svg"><path d="m93.226 22.289c.813-4.178 3.779-7.664 8.825-10.369 1.378-.739 2.045-2.25 1.658-3.761-.392-1.532-1.761-2.575-3.306-2.538-11.093.096-20.946 4.322-25.03 6.342-5.774-1.962-11.549-2.73-17.173-2.286-12.419.984-21.269 4.777-26.301 11.273-5.591 7.217-4.299 15.04-4.244 15.353.231 1.453.55 2.883.951 4.265-6.239 2.89-13.273 7.308-13.273 12.536 0 1.19.387 2.139 1.15 2.819 1.968 1.754 6.036 1.285 11.185.69 1.228-.142 2.531-.292 3.877-.419 2.019-.19 4.136-.325 6.247-.296s4.213.222 6.204.69c5.296 2.021 11.876 4.051 18.242 6.015.511.158 1.023.316 1.536.474l.379.117c8.705 2.692 17.363 5.444 21.834 8.004.016.009.033.019.049.028.312.18.604.358.872.536 12.322 8.142 6.224 19.436 2.501 25.844l-13.48-8.175c-.248-.15-.55-.186-.822-.098-.275.088-.5.291-.614.556-.948 2.194-.974 4.391-.075 6.528 1.858 4.422 7.227 7.408 9.85 8.646-7.733 7.646-1.959 17.716-1.897 17.821.18.306.508.493.862.493h.004c.355-.001.684-.192.862-.5 3.429-5.935 7.485-16.354 8.45-19.356 13.579-10.769 20.878-24.208 21.112-38.883.246-15.395-7.384-31.185-20.435-42.349z" fill="#e6e7e8"/><path d="m88.144 18.683c.846-5.696 5.197-9.372 9.435-11.644 2.173-1.165 1.3-4.438-1.166-4.417-11.363.098-21.489 4.667-24.969 6.424-5.567-1.946-11.384-2.829-17.165-2.371-33.633 2.664-29.635 25.472-29.635 25.472.281 1.771.68 3.42 1.175 4.968-5.531 2.477-13.485 6.92-13.485 11.99 0 6.854 15.586-.42 27.957 2.526 13.71 5.24 35.834 10.452 43.168 15.298 13.713 9.06 5.885 21.905 2.302 28.061l-14.351-8.703c-3.842 8.894 10.681 14.483 10.681 14.483-8.93 7.287-2.86 17.609-2.86 17.609 3.471-6.009 7.651-16.771 8.454-19.449 32.88-25.854 22.476-61.763.459-80.247z" fill="#fff"/><path d="m90.144 21.683c.846-5.696 5.197-9.372 9.435-11.644 2.173-1.165 1.3-4.438-1.166-4.417-11.363.098-21.489 4.667-24.969 6.424-5.567-1.946-11.384-2.829-17.165-2.371-33.634 2.665-29.636 25.472-29.636 25.472.281 1.771.68 3.42 1.175 4.968-5.531 2.477-13.485 6.92-13.485 11.99 0 6.854 15.586-.42 27.957 2.526 13.71 5.24 35.834 10.452 43.168 15.298 13.713 9.06 5.885 21.905 2.302 28.061l-14.35-8.703c-3.842 8.894 10.681 14.483 10.681 14.483-8.93 7.287-2.86 17.609-2.86 17.609 3.471-6.009 7.651-16.771 8.454-19.449 32.88-25.854 22.476-61.763.459-80.247z" fill="#6dc9f7"/><path d="m47.896 44.845c-2.658-.017-5.153.054-7.493.197-1.14.069-2.488-.043-3.336.722-7.991 7.209-16.036 5.669-23.249 5.847 4.176 2.004 16.391-2.381 26.472.02 13.71 5.24 35.834 10.452 43.168 15.298 13.713 9.06 5.885 21.905 2.302 28.061 27.836-31.645-10.052-49.968-37.864-50.145z" fill="#d4fbff"/><ellipse cx="54.996" cy="38.52" fill="#fa759e" rx="3.321" ry="1.68"/><path d="m64.465 38.52s9.197 21.378 11.299 20.641 2.628-15.947 2.628-15.947z" fill="#6dc9f7"/><g fill="#3a2c60"><path d="m89.226 18.289c.813-4.178 3.779-7.664 8.825-10.369 1.378-.739 2.045-2.25 1.658-3.761-.392-1.532-1.761-2.575-3.306-2.538-11.093.096-20.946 4.322-25.03 6.342-5.774-1.962-11.549-2.73-17.173-2.285-12.419.984-21.269 4.777-26.301 11.273-5.591 7.217-4.299 15.04-4.244 15.353.231 1.453.55 2.883.951 4.265-6.239 2.89-13.273 7.308-13.273 12.536 0 1.19.387 2.139 1.15 2.819 1.968 1.754 6.036 1.285 11.185.69 4.912-.567 11.019-1.272 16.328-.025 2.564.978 4.861 1.674 7.517 2.481 1.096.333 2.255.685 3.523 1.083.528.166 1.088-.126 1.254-.654.166-.527-.127-1.088-.654-1.254-1.275-.401-2.441-.755-3.542-1.089-2.642-.802-4.923-1.494-7.447-2.459-.041-.016-.083-.029-.125-.039-2.483-.592-5.091-.77-7.669-.75 2.236-1.35 4.752-3.231 5.798-5.343.245-.495.043-1.095-.452-1.34-.494-.244-1.095-.042-1.34.452-1.384 2.793-6.686 5.562-8.768 6.466-1.621.14-3.191.315-4.651.483-4.282.494-8.326.961-9.625-.196-.207-.184-.481-.521-.481-1.326 0-3.37 4.7-7.407 12.894-11.077.465-.208.699-.732.544-1.217-.494-1.545-.877-3.167-1.143-4.837-.013-.072-1.203-7.273 3.852-13.799 4.673-6.032 13.043-9.566 24.878-10.503 5.476-.438 11.112.346 16.756 2.317.257.09.538.071.78-.051 3.7-1.867 13.495-6.221 24.526-6.316.772.01 1.222.529 1.351 1.033.125.487.016 1.138-.666 1.503-5.107 2.738-8.386 6.409-9.586 10.691-4.306-3.38-9.731-5.155-9.983-5.236-.524-.169-1.088.121-1.258.646-.169.525.12 1.089.646 1.258.064.021 6.449 2.106 10.54 5.9.005.005.012.006.017.011.007.007.012.015.02.021 12.863 10.8 20.399 26.186 20.16 41.159-.227 14.141-7.348 27.121-20.594 37.536-.162.127-.28.302-.34.499-.674 2.247-4.179 11.384-7.432 17.546-1.214-3.044-2.766-9.591 3.427-14.645.276-.226.411-.581.355-.932-.056-.352-.295-.647-.628-.776-.08-.031-8.081-3.169-10.19-8.196-.538-1.281-.642-2.551-.31-3.856l13.292 8.061c.229.14.506.18.766.114s.482-.234.617-.466l.192-.33c3.718-6.377 11.454-19.646-2.808-29.069-3.606-2.383-10.116-4.686-18.781-7.412-.524-.164-1.088.127-1.254.654s.127 1.088.654 1.254c8.504 2.674 14.866 4.918 18.279 7.172 12.322 8.142 6.224 19.436 2.501 25.844l-13.48-8.175c-.248-.15-.55-.186-.822-.098-.275.088-.5.291-.614.556-.948 2.194-.974 4.391-.075 6.528 1.858 4.422 7.227 7.408 9.85 8.646-7.733 7.646-1.959 17.716-1.897 17.821.18.306.508.493.862.493h.004c.355-.001.684-.192.862-.5 3.429-5.935 7.485-16.354 8.45-19.356 13.579-10.769 20.878-24.208 21.112-38.883.247-15.394-7.383-31.184-20.434-42.348z"/><path d="m60.795 57.3-4.383-1.354c-.529-.166-1.088.132-1.251.659-.164.528.132 1.088.659 1.251l4.384 1.354c.098.03.198.045.296.045.427 0 .822-.276.955-.705.164-.527-.132-1.087-.66-1.25z"/><circle cx="44.021" cy="30.899" r="2.736"/><path d="m75.652 60.197c.179 0 .321-.05.441-.092 2.271-.795 3.047-9.605 3.297-16.855.02-.552-.412-1.015-.965-1.034-.544-.011-1.015.413-1.033.965-.211 6.098-.986 13.099-1.857 14.793-1.755-1.752-6.481-11.32-10.151-19.849-.219-.508-.808-.743-1.313-.523-.507.218-.742.806-.523 1.313 8.273 19.235 10.954 21.282 12.104 21.282z"/></g></svg>